<svg xmlns="http://www.w3.org/2000/svg" version="1.1" xmlns:xlink="http://www.w3.org/1999/xlink" xmlns:svgjs="http://svgjs.dev/svgjs" width="1440" height="560" preserveAspectRatio="none" viewBox="0 0 1440 560"><g mask="url(&quot;#SvgjsMask1002&quot;)" fill="none"><rect width="1440" height="560" x="0" y="0" fill="url(&quot;#SvgjsLinearGradient1003&quot;)"></rect><path d="M1440 0L1036.87 0L1440 181.39z" fill="rgba(255, 255, 255, .1)"></path><path d="M1036.87 0L1440 181.39L1440 222.20999999999998L972.2299999999999 0z" fill="rgba(255, 255, 255, .075)"></path><path d="M972.23 0L1440 222.20999999999998L1440 378.46L516.25 0z" fill="rgba(255, 255, 255, .05)"></path><path d="M516.25 0L1440 378.46L1440 393.44L217.19 0z" fill="rgba(255, 255, 255, .025)"></path><path d="M0 560L415.32 560L0 432.72z" fill="rgba(0, 0, 0, .1)"></path><path d="M0 432.72L415.32 560L531.62 560L0 269.07000000000005z" fill="rgba(0, 0, 0, .075)"></path><path d="M0 269.07L531.62 560L832.06 560L0 119.4z" fill="rgba(0, 0, 0, .05)"></path><path d="M0 119.39999999999998L832.06 560L868.63 560L0 49.67999999999998z" fill="rgba(0, 0, 0, .025)"></path></g><defs><mask id="SvgjsMask1002"><rect width="1440" height="560" fill="#ffffff"></rect></mask><linearGradient x1="15.28%" y1="-39.29%" x2="84.72%" y2="139.29%" gradientUnits="userSpaceOnUse" id="SvgjsLinearGradient1003"><stop stop-color="#0e2a47" offset="0"></stop><stop stop-color="#00459e" offset="1"></stop></linearGradient></defs></svg>